HIERARCHY
ROOT Hips
{
    OFFSET 0.000000 0.000000 0.000000
    CHANNELS 6 Xposition Yposition Zposition Zrotation Xrotation Yrotation
    JOINT Spine
    {
        OFFSET -0.000000 7.595339 0.000000
        CHANNELS 3 Zrotation Xrotation Yrotation
        JOINT Spine1
        {
            OFFSET -0.000000 23.501528 0.000000
            CHANNELS 3 Zrotation Xrotation Yrotation
            JOINT Neck
            {
                OFFSET -0.000000 23.405012 2.127728
                CHANNELS 3 Zrotation Xrotation Yrotation
                JOINT Head
                {
                    OFFSET -0.000000 12.967652 -1.852522
                    CHANNELS 3 Zrotation Xrotation Yrotation
                    End Site
                    {
                        OFFSET -0.000000 23.156521 0.000000
                    }
                }
            }
            JOINT LeftShoulder
            {
                OFFSET 3.622064 22.473162 -0.132728
                CHANNELS 3 Zrotation Xrotation Yrotation
                JOINT LeftArm
                {
                    OFFSET 8.177839 0.000000 0.000000
                    CHANNELS 3 Zrotation Xrotation Yrotation
                    JOINT LeftForeArm
                    {
                        OFFSET 30.104038 0.000000 0.000000
                        CHANNELS 3 Zrotation Xrotation Yrotation
                        JOINT LeftHand
                        {
                            OFFSET 24.466351 0.000000 0.000000
                            CHANNELS 3 Zrotation Xrotation Yrotation
                            End Site
                            {
                                OFFSET 13.893912 0.000000 0.000000
                            }
                        }
                    }
                }
            }
            JOINT RightShoulder
            {
                OFFSET -3.633604 22.473162 -0.132728
                CHANNELS 3 Zrotation Xrotation Yrotation
                JOINT RightArm
                {
                    OFFSET -8.177839 0.000000 0.000000
                    CHANNELS 3 Zrotation Xrotation Yrotation
                    JOINT RightForeArm
                    {
                        OFFSET -30.104038 0.000000 0.000000
                        CHANNELS 3 Zrotation Xrotation Yrotation
                        JOINT RightHand
                        {
                            OFFSET -24.466351 0.000000 0.000000
                            CHANNELS 3 Zrotation Xrotation Yrotation
                            End Site
                            {
                                OFFSET -13.893912 0.000000 0.000000
                            }
                        }
                    }
                }
            }
        }
    }
    JOINT LeftUpLeg
    {
        OFFSET 9.262609 0.000000 0.000000
        CHANNELS 3 Zrotation Xrotation Yrotation
        JOINT LeftLeg
        {
            OFFSET -0.000000 -35.489674 0.000000
            CHANNELS 3 Zrotation Xrotation Yrotation
            JOINT LeftFoot
            {
                OFFSET -0.000000 -38.202274 0.000000
                CHANNELS 3 Zrotation Xrotation Yrotation
                JOINT LeftToeBase
                {
                    OFFSET -0.000000 -6.020695 13.893912
                    CHANNELS 3 Zrotation Xrotation Yrotation
                    End Site
                    {
                        OFFSET -0.000000 0.000000 3.705043
                    }
                }
            }
        }
    }
    JOINT RightUpLeg
    {
        OFFSET -9.262609 0.000000 0.000000
        CHANNELS 3 Zrotation Xrotation Yrotation
        JOINT RightLeg
        {
            OFFSET -0.000000 -35.489674 0.000000
            CHANNELS 3 Zrotation Xrotation Yrotation
            JOINT RightFoot
            {
                OFFSET -0.000000 -38.202274 0.000000
                CHANNELS 3 Zrotation Xrotation Yrotation
                JOINT RightToeBase
                {
                    OFFSET -0.000000 -6.020695 13.893912
                    CHANNELS 3 Zrotation Xrotation Yrotation
                    End Site
                    {
                        OFFSET -0.000000 0.000000 3.705043
                    }
                }
            }
        }
    }
}
MOTION
Frames:    14
Frame Time:    0.004000
-7.146683    77.851746    -88.793541    1.817361    -0.751429    85.305374    -4.678797    1.376534    -2.648035    2.804037    -0.719810    -2.686571    -4.195601    31.449823    -29.424475    18.351051    7.138832    -30.089893    -10.795327    11.453545    15.559799    -38.118805    18.121075    0.744207    7.744912    -11.065496    -11.668411    15.379278    -10.038951    1.862322    4.234462    22.881166    11.085197    35.633713    4.484684    -0.598380    -17.030752    -5.883385    20.520264    -4.863320    -2.564971    -5.227764    19.244238    5.303065    2.224358    -8.774423    12.234402    4.757798    1.393046    -1.626523    23.014662    0.000000    0.000000    0.000000    -10.516514    -13.449340    0.089794    0.467682    31.441900    -4.677336    4.209946    -5.512408    10.534783    0.000000    0.000000    0.000000    
-7.175756    77.893356    -88.539597    1.773275    -0.683920    85.375549    -4.695352    1.388975    -2.655882    2.743369    -0.792143    -2.693754    -3.968338    31.498344    -29.494541    18.195526    6.996529    -30.118135    -10.710839    11.509324    15.491997    -38.128380    18.001728    0.730828    7.642584    -11.003111    -11.629574    15.370979    -10.004058    1.752162    4.350319    22.964035    11.029847    35.588490    4.509060    -0.564176    -16.958696    -6.014329    20.494148    -4.892123    -2.711639    -5.248091    19.267889    5.130424    2.269272    -8.950538    12.361545    4.757363    1.617733    -1.840950    23.044977    0.000000    0.000000    0.000000    -10.404728    -13.433322    0.089719    0.494558    31.406788    -4.398437    4.128635    -5.721797    10.163058    0.000000    0.000000    0.000000    
-7.201233    77.937172    -88.276764    1.760569    -0.609910    85.423645    -4.761448    1.383556    -2.710037    2.809877    -0.760667    -2.748780    -4.137897    31.463404    -29.420797    18.259600    7.048477    -30.068796    -10.753425    11.449727    15.540794    -38.157436    18.225418    0.745238    7.699884    -11.137306    -11.550524    15.434484    -10.138914    1.739682    4.286042    22.963148    11.149950    35.601761    4.471965    -0.551451    -16.875351    -6.042218    20.453560    -4.982005    -2.758774    -5.210294    19.279131    4.955940    2.452258    -9.194983    12.606837    4.842599    1.739122    -2.310174    22.929741    0.000000    0.000000    0.000000    -10.278926    -13.417325    0.014914    0.442294    31.404682    -4.199031    4.047007    -5.882452    10.003501    0.000000    0.000000    0.000000    
-7.223225    77.979919    -88.035629    1.732881    -0.522987    85.463600    -4.792600    1.409594    -2.684051    2.761950    -0.814086    -2.723291    -3.991897    31.448151    -29.485331    18.184048    7.002868    -30.111551    -10.712947    11.464577    15.516640    -38.124069    18.181282    0.678413    7.602532    -11.127839    -11.535925    15.692359    -10.121670    1.846774    4.405529    22.902763    11.035145    35.584007    4.590889    -0.582381    -16.811346    -6.118743    20.436712    -4.956975    -2.849379    -5.250842    19.234755    4.783995    2.606430    -9.358459    12.816800    4.741447    1.972929    -2.789466    22.762871    0.000000    0.000000    0.000000    -10.199352    -13.395879    0.114685    0.536267    31.351198    -4.205547    3.954074    -6.038750    9.851971    0.000000    0.000000    0.000000    
-7.252120    78.017174    -87.789787    1.694304    -0.466758    85.524918    -4.794016    1.431642    -2.703416    2.710371    -0.888788    -2.742216    -3.859576    31.472603    -29.497599    18.080021    6.930408    -30.100222    -10.642759    11.514813    15.510578    -38.153023    18.206137    0.628802    7.592441    -11.172088    -11.484102    15.705544    -10.148960    2.003792    4.462119    22.936695    11.039340    35.564610    4.509841    -0.590814    -16.680922    -6.172820    20.458746    -5.008044    -2.925498    -5.171645    19.245001    4.560512    2.797193    -9.602248    13.125801    4.740720    2.281791    -3.261926    22.543121    0.000000    0.000000    0.000000    -10.083870    -13.386492    0.190839    0.617481    31.324011    -4.107203    3.850900    -6.224364    9.569571    0.000000    0.000000    0.000000    
-7.281856    78.054390    -87.550064    1.664628    -0.419015    85.591324    -4.814525    1.476234    -2.738762    2.729935    -0.960950    -2.777800    -3.895725    31.452929    -29.494711    18.078579    6.980159    -30.110039    -10.650713    11.509194    15.538871    -38.150940    18.255980    0.619133    7.573456    -11.201835    -11.394165    15.708458    -10.200974    1.897614    4.460803    22.953232    11.056237    35.564468    4.554820    -0.582445    -16.639938    -6.230694    20.403978    -4.890890    -3.012085    -4.999595    19.260805    4.325055    3.031298    -9.892656    13.474190    4.865420    2.772278    -3.639919    22.245745    0.000000    0.000000    0.000000    -9.954144    -13.362775    0.300507    0.696914    31.283628    -4.061789    3.758583    -6.391521    9.301970    0.000000    0.000000    0.000000    
-7.303085    78.095329    -87.314178    1.661762    -0.360347    85.616890    -4.811034    1.533270    -2.745283    2.675967    -1.035589    -2.785384    -3.896243    31.435406    -29.482010    18.103865    7.039901    -30.103901    -10.425815    11.438699    15.502911    -38.354603    18.295134    0.690911    7.555969    -11.194574    -11.352361    15.632449    -10.190800    1.961437    4.497775    22.971560    11.056358    35.556564    4.533189    -0.572371    -16.578239    -6.239239    20.407568    -4.796206    -3.033901    -5.040762    19.218781    4.136914    3.289257    -10.093556    13.829834    4.728406    3.140851    -4.018680    22.218517    0.000000    0.000000    0.000000    -9.828991    -13.357831    0.248883    0.650979    31.306843    -3.749721    3.670336    -6.506795    9.010448    0.000000    0.000000    0.000000    
-7.325011    78.135483    -87.077843    1.672911    -0.310801    85.668076    -4.843710    1.601758    -2.772510    2.726701    -1.088800    -2.814223    -3.851109    31.473244    -29.505684    18.014145    6.915354    -30.109381    -10.505312    11.431921    15.588573    -38.277145    18.350487    0.623952    7.518813    -11.227055    -11.296583    15.712061    -10.220823    2.023858    4.462055    22.966305    11.087684    35.572670    4.534209    -0.581531    -16.524113    -6.260650    20.413193    -4.744278    -3.070807    -4.943963    19.191143    3.935223    3.549512    -10.352946    14.253852    4.625758    3.579804    -4.360435    22.253775    0.000000    0.000000    0.000000    -9.693410    -13.303723    0.301887    0.654819    31.285807    -3.589705    3.568040    -6.652479    8.754885    0.000000    0.000000    0.000000    
-7.353313    78.171829    -86.853523    1.660380    -0.261244    85.717178    -4.833529    1.673114    -2.792663    2.679410    -1.180452    -2.835546    -3.846771    31.406450    -29.460262    17.988245    7.022812    -30.076645    -10.488991    11.461892    15.636905    -38.256069    18.330925    0.562862    7.488587    -11.272738    -11.282104    15.756300    -10.256344    2.122442    4.514160    22.971483    11.098860    35.547977    4.563913    -0.608376    -16.483597    -6.253142    20.385965    -4.610913    -3.084801    -4.837637    19.149309    3.684965    3.844152    -10.615536    14.739638    4.452427    3.642389    -4.870080    22.416130    0.000000    0.000000    0.000000    -9.564691    -13.272854    0.406431    0.703093    31.234344    -3.646193    3.502344    -6.755793    8.639237    0.000000    0.000000    0.000000    
-7.377069    78.214180    -86.625168    1.651078    -0.222301    85.749908    -4.842018    1.701877    -2.835193    2.723705    -1.185378    -2.878855    -3.900103    31.384138    -29.473967    17.952164    6.975836    -30.093195    -10.536757    11.441302    15.715413    -38.225433    18.278126    0.525799    7.319092    -11.381387    -11.289628    16.209682    -10.353070    2.264608    4.432883    22.975252    11.182749    35.561890    4.539503    -0.589953    -16.471495    -6.207180    20.355083    -4.466284    -3.057455    -4.687249    19.104280    3.444812    4.141323    -10.862952    15.225584    4.318001    3.865047    -5.347160    22.538052    0.000000    0.000000    0.000000    -9.423076    -13.234413    0.518058    0.754381    31.171097    -3.733799    3.442363    -6.849034    8.558651    0.000000    0.000000    0.000000    
-7.394199    78.251991    -86.414566    1.670476    -0.175269    85.765999    -4.824370    1.769707    -2.822449    2.679071    -1.232516    -2.868081    -3.909184    31.279259    -29.433786    17.915314    7.134634    -30.075285    -10.490689    11.459855    15.701621    -38.247040    18.317743    0.495646    7.338167    -11.407862    -11.234780    16.091835    -10.383604    2.264745    4.477469    22.989029    11.160060    35.557915    4.533863    -0.618605    -16.408073    -6.245949    20.427536    -4.717410    -3.084146    -4.755853    19.028404    3.250524    4.574326    -11.099722    15.776912    3.975073    3.872807    -5.970475    22.894001    0.000000    0.000000    0.000000    -9.318104    -13.162733    0.632477    0.833400    31.101665    -3.725424    3.338421    -6.961197    8.375067    0.000000    0.000000    0.000000    
-7.416764    78.290565    -86.192993    1.675683    -0.130767    85.804794    -4.865982    1.812772    -2.837951    2.762706    -1.251771    -2.884680    -4.005299    31.272894    -29.444283    17.962341    7.167524    -30.103069    -10.549875    11.410854    15.724784    -38.212982    18.311974    0.485846    7.266741    -11.452347    -11.209361    16.198837    -10.438147    2.239844    4.401147    22.998169    11.176078    35.600388    4.600007    -0.585889    -16.417679    -6.249499    20.389585    -4.799185    -3.083669    -4.864027    18.968256    3.008591    4.874032    -11.386364    16.330378    3.816977    3.965667    -6.418574    23.145355    0.000000    0.000000    0.000000    -9.195819    -13.112423    0.637082    0.838925    31.050472    -3.671798    3.249908    -7.062768    8.268270    0.000000    0.000000    0.000000    
-7.438037    78.325745    -85.983025    1.673659    -0.088790    85.837227    -4.837659    1.860157    -2.835119    2.724753    -1.289266    -2.882931    -3.949676    31.252117    -29.452133    17.931801    7.108429    -30.094543    -10.543529    11.407212    15.711199    -38.163853    18.189280    0.453538    7.162710    -11.432426    -11.175399    16.196587    -10.419208    2.319653    4.425451    23.076273    11.140146    35.564262    4.484137    -0.527163    -16.394350    -6.101700    20.371021    -4.625829    -2.956997    -4.680893    18.883118    2.772345    5.192365    -11.633541    16.958178    3.178893    4.325458    -6.952465    23.698858    0.000000    0.000000    0.000000    -9.073972    -13.067273    0.632561    0.821626    30.985638    -3.641713    3.206142    -7.149305    8.232465    0.000000    0.000000    0.000000    
-7.463570    78.367981    -85.773598    1.660865    -0.046299    85.862000    -4.898611    1.839870    -2.820769    2.865978    -1.213721    -2.869003    -4.037803    31.196129    -29.468258    17.927774    7.087153    -30.119429    -10.630742    11.288472    15.631399    -38.152687    18.254684    0.501880    7.191829    -11.447576    -11.105555    16.169092    -10.433108    2.344004    4.336236    23.000431    11.111704    35.615795    4.502304    -0.534908    -16.343744    -6.049000    20.414280    -4.916694    -2.890688    -4.782125    18.784487    2.538647    5.502433    -11.874790    17.477669    3.060343    4.487869    -7.319103    23.857122    0.000000    0.000000    0.000000    -8.948568    -13.031386    0.718450    0.844605    30.889067    -3.641809    3.164014    -7.184773    8.165462    0.000000    0.000000    0.000000    
